<mxfile host="app.diagrams.net" modified="2021-03-02T13:18:23.529Z" agent="5.0 (Windows NT 10.0; Win64; x64) AppleWebKit/537.36 (KHTML, like Gecko) Chrome/88.0.4324.190 Safari/537.36" etag="j4kAT3FcDtQUs2R19369" version="14.4.2" type="github" pages="2">
  <diagram id="EaXYE5lj4bUsFUREaHp3" name="Page-1">
    <mxGraphModel dx="1038" dy="548" grid="1" gridSize="10" guides="1" tooltips="1" connect="1" arrows="1" fold="1" page="1" pageScale="1" pageWidth="850" pageHeight="1100" math="0" shadow="0">
      <root>
        <mxCell id="0" />
        <mxCell id="1" parent="0" />
        <mxCell id="0v5BLp07yuuN1LYSjahg-1" value="Receptionist" style="shape=umlActor;verticalLabelPosition=bottom;verticalAlign=top;html=1;outlineConnect=0;" parent="1" vertex="1">
          <mxGeometry x="120" y="400" width="30" height="60" as="geometry" />
        </mxCell>
        <mxCell id="0v5BLp07yuuN1LYSjahg-2" value="Cashier" style="shape=umlActor;verticalLabelPosition=bottom;verticalAlign=top;html=1;outlineConnect=0;" parent="1" vertex="1">
          <mxGeometry x="730" y="385" width="30" height="60" as="geometry" />
        </mxCell>
        <mxCell id="0v5BLp07yuuN1LYSjahg-3" value="" style="whiteSpace=wrap;html=1;aspect=fixed;" parent="1" vertex="1">
          <mxGeometry x="220" y="310" width="490" height="490" as="geometry" />
        </mxCell>
        <mxCell id="0v5BLp07yuuN1LYSjahg-9" value="patient" style="shape=umlActor;verticalLabelPosition=bottom;verticalAlign=top;html=1;outlineConnect=0;" parent="1" vertex="1">
          <mxGeometry x="120" y="310" width="30" height="60" as="geometry" />
        </mxCell>
        <mxCell id="0v5BLp07yuuN1LYSjahg-11" value="Records manager&lt;span style=&quot;color: rgba(0 , 0 , 0 , 0) ; font-family: monospace ; font-size: 0px&quot;&gt;%3CmxGraphModel%3E%3Croot%3E%3CmxCell%20id%3D%220%22%2F%3E%3CmxCell%20id%3D%221%22%20parent%3D%220%22%2F%3E%3CmxCell%20id%3D%222%22%20value%3D%22Cashier%22%20style%3D%22shape%3DumlActor%3BverticalLabelPosition%3Dbottom%3BverticalAlign%3Dtop%3Bhtml%3D1%3BoutlineConnect%3D0%3B%22%20vertex%3D%221%22%20parent%3D%221%22%3E%3CmxGeometry%20x%3D%22738%22%20y%3D%22400%22%20width%3D%2230%22%20height%3D%2260%22%20as%3D%22geometry%22%2F%3E%3C%2FmxCell%3E%3C%2Froot%3E%3C%2FmxGraphModel%3E&lt;/span&gt;" style="shape=umlActor;verticalLabelPosition=bottom;verticalAlign=top;html=1;outlineConnect=0;" parent="1" vertex="1">
          <mxGeometry x="120" y="610" width="30" height="60" as="geometry" />
        </mxCell>
        <mxCell id="0v5BLp07yuuN1LYSjahg-12" value="Doctors&lt;br&gt;" style="shape=umlActor;verticalLabelPosition=bottom;verticalAlign=top;html=1;outlineConnect=0;" parent="1" vertex="1">
          <mxGeometry x="720" y="620" width="30" height="60" as="geometry" />
        </mxCell>
        <mxCell id="0v5BLp07yuuN1LYSjahg-14" value="Doctor appointment" style="ellipse;whiteSpace=wrap;html=1;" parent="1" vertex="1">
          <mxGeometry x="290" y="390" width="90" height="50" as="geometry" />
        </mxCell>
        <mxCell id="0v5BLp07yuuN1LYSjahg-15" value="Test appointment" style="ellipse;whiteSpace=wrap;html=1;" parent="1" vertex="1">
          <mxGeometry x="290" y="450" width="90" height="50" as="geometry" />
        </mxCell>
        <mxCell id="0v5BLp07yuuN1LYSjahg-17" value="draw salary" style="ellipse;whiteSpace=wrap;html=1;" parent="1" vertex="1">
          <mxGeometry x="500" y="550" width="90" height="50" as="geometry" />
        </mxCell>
        <mxCell id="0v5BLp07yuuN1LYSjahg-22" value="" style="endArrow=classic;html=1;entryX=0;entryY=0.5;entryDx=0;entryDy=0;" parent="1" target="0v5BLp07yuuN1LYSjahg-14" edge="1">
          <mxGeometry width="50" height="50" relative="1" as="geometry">
            <mxPoint x="160" y="430" as="sourcePoint" />
            <mxPoint x="306.3900000000001" y="381.20000000000005" as="targetPoint" />
          </mxGeometry>
        </mxCell>
        <mxCell id="0v5BLp07yuuN1LYSjahg-23" value="" style="endArrow=classic;html=1;" parent="1" target="0v5BLp07yuuN1LYSjahg-15" edge="1">
          <mxGeometry width="50" height="50" relative="1" as="geometry">
            <mxPoint x="160" y="430" as="sourcePoint" />
            <mxPoint x="316.3900000000001" y="391.20000000000005" as="targetPoint" />
          </mxGeometry>
        </mxCell>
        <mxCell id="0v5BLp07yuuN1LYSjahg-28" value="" style="endArrow=classic;html=1;entryX=1;entryY=0.5;entryDx=0;entryDy=0;" parent="1" source="0v5BLp07yuuN1LYSjahg-2" target="0v5BLp07yuuN1LYSjahg-17" edge="1">
          <mxGeometry width="50" height="50" relative="1" as="geometry">
            <mxPoint x="160" y="640" as="sourcePoint" />
            <mxPoint x="210" y="590" as="targetPoint" />
          </mxGeometry>
        </mxCell>
        <mxCell id="0v5BLp07yuuN1LYSjahg-30" value="" style="endArrow=classic;html=1;" parent="1" source="0v5BLp07yuuN1LYSjahg-17" target="0v5BLp07yuuN1LYSjahg-12" edge="1">
          <mxGeometry width="50" height="50" relative="1" as="geometry">
            <mxPoint x="360" y="570" as="sourcePoint" />
            <mxPoint x="410" y="520" as="targetPoint" />
          </mxGeometry>
        </mxCell>
        <mxCell id="0v5BLp07yuuN1LYSjahg-32" value="Admission" style="ellipse;whiteSpace=wrap;html=1;" parent="1" vertex="1">
          <mxGeometry x="290" y="330" width="90" height="50" as="geometry" />
        </mxCell>
        <mxCell id="0v5BLp07yuuN1LYSjahg-33" value="" style="endArrow=classic;html=1;entryX=0.125;entryY=0.728;entryDx=0;entryDy=0;entryPerimeter=0;" parent="1" target="0v5BLp07yuuN1LYSjahg-32" edge="1">
          <mxGeometry width="50" height="50" relative="1" as="geometry">
            <mxPoint x="160" y="430" as="sourcePoint" />
            <mxPoint x="410" y="530" as="targetPoint" />
          </mxGeometry>
        </mxCell>
        <mxCell id="0v5BLp07yuuN1LYSjahg-35" value="Bed allotment&amp;nbsp;" style="ellipse;whiteSpace=wrap;html=1;" parent="1" vertex="1">
          <mxGeometry x="500" y="350" width="90" height="50" as="geometry" />
        </mxCell>
        <mxCell id="0v5BLp07yuuN1LYSjahg-37" value="undergo operation" style="ellipse;whiteSpace=wrap;html=1;" parent="1" vertex="1">
          <mxGeometry x="500" y="430" width="90" height="50" as="geometry" />
        </mxCell>
        <mxCell id="0v5BLp07yuuN1LYSjahg-38" value="" style="endArrow=classic;html=1;entryX=1;entryY=0.5;entryDx=0;entryDy=0;" parent="1" target="0v5BLp07yuuN1LYSjahg-37" edge="1">
          <mxGeometry width="50" height="50" relative="1" as="geometry">
            <mxPoint x="730" y="430" as="sourcePoint" />
            <mxPoint x="410" y="530" as="targetPoint" />
          </mxGeometry>
        </mxCell>
        <mxCell id="0v5BLp07yuuN1LYSjahg-39" value="" style="endArrow=classic;html=1;entryX=0.929;entryY=0.664;entryDx=0;entryDy=0;entryPerimeter=0;" parent="1" target="0v5BLp07yuuN1LYSjahg-35" edge="1">
          <mxGeometry width="50" height="50" relative="1" as="geometry">
            <mxPoint x="730" y="430" as="sourcePoint" />
            <mxPoint x="410" y="540" as="targetPoint" />
          </mxGeometry>
        </mxCell>
        <mxCell id="0v5BLp07yuuN1LYSjahg-41" value="payment info" style="ellipse;whiteSpace=wrap;html=1;" parent="1" vertex="1">
          <mxGeometry x="300" y="700" width="90" height="50" as="geometry" />
        </mxCell>
        <mxCell id="0v5BLp07yuuN1LYSjahg-42" value="Admission/discharge info" style="ellipse;whiteSpace=wrap;html=1;" parent="1" vertex="1">
          <mxGeometry x="320" y="640" width="130" height="50" as="geometry" />
        </mxCell>
        <mxCell id="0v5BLp07yuuN1LYSjahg-43" value="Bed status" style="ellipse;whiteSpace=wrap;html=1;" parent="1" vertex="1">
          <mxGeometry x="300" y="580" width="90" height="50" as="geometry" />
        </mxCell>
        <mxCell id="0v5BLp07yuuN1LYSjahg-44" value="Add/delete/edit staff" style="ellipse;whiteSpace=wrap;html=1;" parent="1" vertex="1">
          <mxGeometry x="260" y="530" width="90" height="50" as="geometry" />
        </mxCell>
        <mxCell id="0v5BLp07yuuN1LYSjahg-45" value="" style="endArrow=classic;html=1;entryX=0;entryY=1;entryDx=0;entryDy=0;" parent="1" target="0v5BLp07yuuN1LYSjahg-44" edge="1">
          <mxGeometry width="50" height="50" relative="1" as="geometry">
            <mxPoint x="160" y="640" as="sourcePoint" />
            <mxPoint x="410" y="550" as="targetPoint" />
          </mxGeometry>
        </mxCell>
        <mxCell id="0v5BLp07yuuN1LYSjahg-46" value="" style="endArrow=classic;html=1;entryX=0;entryY=0.5;entryDx=0;entryDy=0;" parent="1" target="0v5BLp07yuuN1LYSjahg-43" edge="1">
          <mxGeometry width="50" height="50" relative="1" as="geometry">
            <mxPoint x="160" y="640" as="sourcePoint" />
            <mxPoint x="283.1801948466052" y="582.677669529664" as="targetPoint" />
          </mxGeometry>
        </mxCell>
        <mxCell id="0v5BLp07yuuN1LYSjahg-47" value="" style="endArrow=classic;html=1;entryX=0;entryY=0.5;entryDx=0;entryDy=0;" parent="1" target="0v5BLp07yuuN1LYSjahg-42" edge="1">
          <mxGeometry width="50" height="50" relative="1" as="geometry">
            <mxPoint x="160" y="640" as="sourcePoint" />
            <mxPoint x="293.1801948466052" y="592.677669529664" as="targetPoint" />
          </mxGeometry>
        </mxCell>
        <mxCell id="0v5BLp07yuuN1LYSjahg-48" value="" style="endArrow=classic;html=1;entryX=0;entryY=0.5;entryDx=0;entryDy=0;" parent="1" target="0v5BLp07yuuN1LYSjahg-41" edge="1">
          <mxGeometry width="50" height="50" relative="1" as="geometry">
            <mxPoint x="160" y="640" as="sourcePoint" />
            <mxPoint x="303.1801948466052" y="602.677669529664" as="targetPoint" />
          </mxGeometry>
        </mxCell>
        <mxCell id="0v5BLp07yuuN1LYSjahg-49" value="" style="endArrow=classic;html=1;entryX=0;entryY=0.3333333333333333;entryDx=0;entryDy=0;entryPerimeter=0;exitX=1;exitY=0.5;exitDx=0;exitDy=0;" parent="1" source="0v5BLp07yuuN1LYSjahg-14" target="0v5BLp07yuuN1LYSjahg-12" edge="1">
          <mxGeometry width="50" height="50" relative="1" as="geometry">
            <mxPoint x="360" y="600" as="sourcePoint" />
            <mxPoint x="410" y="550" as="targetPoint" />
          </mxGeometry>
        </mxCell>
        <mxCell id="0v5BLp07yuuN1LYSjahg-52" value="" style="endArrow=classic;html=1;exitX=0.96;exitY=0.712;exitDx=0;exitDy=0;exitPerimeter=0;jumpStyle=arc;entryX=0;entryY=1;entryDx=0;entryDy=0;entryPerimeter=0;" parent="1" source="0v5BLp07yuuN1LYSjahg-15" target="0v5BLp07yuuN1LYSjahg-2" edge="1">
          <mxGeometry width="50" height="50" relative="1" as="geometry">
            <mxPoint x="410" y="530" as="sourcePoint" />
            <mxPoint x="530" y="520" as="targetPoint" />
            <Array as="points">
              <mxPoint x="560" y="500" />
            </Array>
          </mxGeometry>
        </mxCell>
        <mxCell id="0v5BLp07yuuN1LYSjahg-53" value="" style="endArrow=classic;html=1;exitX=0.271;exitY=0.968;exitDx=0;exitDy=0;exitPerimeter=0;entryX=1;entryY=1;entryDx=0;entryDy=0;dashed=1;" parent="1" source="0v5BLp07yuuN1LYSjahg-35" target="0v5BLp07yuuN1LYSjahg-32" edge="1">
          <mxGeometry width="50" height="50" relative="1" as="geometry">
            <mxPoint x="360" y="600" as="sourcePoint" />
            <mxPoint x="410" y="550" as="targetPoint" />
          </mxGeometry>
        </mxCell>
        <mxCell id="0v5BLp07yuuN1LYSjahg-54" value="extend" style="edgeLabel;html=1;align=center;verticalAlign=middle;resizable=0;points=[];" parent="0v5BLp07yuuN1LYSjahg-53" vertex="1" connectable="0">
          <mxGeometry x="-0.1944" y="4" relative="1" as="geometry">
            <mxPoint as="offset" />
          </mxGeometry>
        </mxCell>
        <mxCell id="0v5BLp07yuuN1LYSjahg-55" value="" style="endArrow=classic;html=1;exitX=0.236;exitY=0.056;exitDx=0;exitDy=0;exitPerimeter=0;entryX=1;entryY=1;entryDx=0;entryDy=0;dashed=1;" parent="1" source="0v5BLp07yuuN1LYSjahg-37" target="0v5BLp07yuuN1LYSjahg-32" edge="1">
          <mxGeometry width="50" height="50" relative="1" as="geometry">
            <mxPoint x="534.3900000000001" y="408.4" as="sourcePoint" />
            <mxPoint x="376.8198051533948" y="382.67766952966383" as="targetPoint" />
          </mxGeometry>
        </mxCell>
        <mxCell id="0v5BLp07yuuN1LYSjahg-56" value="extend" style="edgeLabel;html=1;align=center;verticalAlign=middle;resizable=0;points=[];" parent="0v5BLp07yuuN1LYSjahg-55" vertex="1" connectable="0">
          <mxGeometry x="-0.1944" y="4" relative="1" as="geometry">
            <mxPoint as="offset" />
          </mxGeometry>
        </mxCell>
        <mxCell id="0v5BLp07yuuN1LYSjahg-59" value="" style="endArrow=classic;html=1;entryX=0;entryY=0.5;entryDx=0;entryDy=0;" parent="1" target="0v5BLp07yuuN1LYSjahg-14" edge="1">
          <mxGeometry width="50" height="50" relative="1" as="geometry">
            <mxPoint x="160" y="340" as="sourcePoint" />
            <mxPoint x="470" y="530" as="targetPoint" />
          </mxGeometry>
        </mxCell>
        <mxCell id="0v5BLp07yuuN1LYSjahg-60" value="" style="endArrow=classic;html=1;entryX=0.018;entryY=0.344;entryDx=0;entryDy=0;entryPerimeter=0;" parent="1" target="0v5BLp07yuuN1LYSjahg-15" edge="1">
          <mxGeometry width="50" height="50" relative="1" as="geometry">
            <mxPoint x="160" y="340" as="sourcePoint" />
            <mxPoint x="470" y="530" as="targetPoint" />
          </mxGeometry>
        </mxCell>
      </root>
    </mxGraphModel>
  </diagram>
  <diagram id="aI7t2gTwbrMKusd5UdO-" name="Page-2">
    <mxGraphModel dx="1038" dy="548" grid="1" gridSize="10" guides="1" tooltips="1" connect="1" arrows="1" fold="1" page="1" pageScale="1" pageWidth="850" pageHeight="1100" math="0" shadow="0">
      <root>
        <mxCell id="AELfop9hD6j-7uFaIOFz-0" />
        <mxCell id="AELfop9hD6j-7uFaIOFz-1" parent="AELfop9hD6j-7uFaIOFz-0" />
        <mxCell id="RuLnJAGt3dWa1LINMC8S-1" value="Student" style="shape=umlActor;verticalLabelPosition=bottom;verticalAlign=top;html=1;outlineConnect=0;" vertex="1" parent="AELfop9hD6j-7uFaIOFz-1">
          <mxGeometry x="60" y="200" width="30" height="60" as="geometry" />
        </mxCell>
        <mxCell id="RuLnJAGt3dWa1LINMC8S-2" value="AddStudent" style="rounded=0;whiteSpace=wrap;html=1;" vertex="1" parent="AELfop9hD6j-7uFaIOFz-1">
          <mxGeometry x="200" y="215" width="100" height="30" as="geometry" />
        </mxCell>
        <mxCell id="RuLnJAGt3dWa1LINMC8S-3" value="Choose course" style="rounded=0;whiteSpace=wrap;html=1;" vertex="1" parent="AELfop9hD6j-7uFaIOFz-1">
          <mxGeometry x="430" y="215" width="100" height="30" as="geometry" />
        </mxCell>
        <mxCell id="RuLnJAGt3dWa1LINMC8S-4" value="ApproveRegdCourses" style="rounded=0;whiteSpace=wrap;html=1;" vertex="1" parent="AELfop9hD6j-7uFaIOFz-1">
          <mxGeometry x="670" y="215" width="140" height="30" as="geometry" />
        </mxCell>
        <mxCell id="RuLnJAGt3dWa1LINMC8S-5" value="Course" style="rounded=0;whiteSpace=wrap;html=1;" vertex="1" parent="AELfop9hD6j-7uFaIOFz-1">
          <mxGeometry x="200" y="410" width="100" height="30" as="geometry" />
        </mxCell>
        <mxCell id="RuLnJAGt3dWa1LINMC8S-6" value="Exams" style="rounded=0;whiteSpace=wrap;html=1;" vertex="1" parent="AELfop9hD6j-7uFaIOFz-1">
          <mxGeometry x="430" y="410" width="100" height="30" as="geometry" />
        </mxCell>
        <mxCell id="RuLnJAGt3dWa1LINMC8S-7" value="Course Registeration" style="rounded=0;whiteSpace=wrap;html=1;" vertex="1" parent="AELfop9hD6j-7uFaIOFz-1">
          <mxGeometry x="670" y="410" width="140" height="30" as="geometry" />
        </mxCell>
        <mxCell id="RuLnJAGt3dWa1LINMC8S-8" value="" style="endArrow=none;html=1;" edge="1" parent="AELfop9hD6j-7uFaIOFz-1" source="RuLnJAGt3dWa1LINMC8S-1">
          <mxGeometry width="50" height="50" relative="1" as="geometry">
            <mxPoint x="400" y="310" as="sourcePoint" />
            <mxPoint x="200" y="231" as="targetPoint" />
          </mxGeometry>
        </mxCell>
        <mxCell id="RuLnJAGt3dWa1LINMC8S-10" value="" style="endArrow=none;html=1;entryX=0;entryY=0.5;entryDx=0;entryDy=0;" edge="1" parent="AELfop9hD6j-7uFaIOFz-1" target="RuLnJAGt3dWa1LINMC8S-3">
          <mxGeometry width="50" height="50" relative="1" as="geometry">
            <mxPoint x="300" y="229.5" as="sourcePoint" />
            <mxPoint x="410" y="230.38" as="targetPoint" />
          </mxGeometry>
        </mxCell>
        <mxCell id="RuLnJAGt3dWa1LINMC8S-11" value="" style="endArrow=none;html=1;exitX=1;exitY=0.5;exitDx=0;exitDy=0;" edge="1" parent="AELfop9hD6j-7uFaIOFz-1" source="RuLnJAGt3dWa1LINMC8S-3">
          <mxGeometry width="50" height="50" relative="1" as="geometry">
            <mxPoint x="550" y="229.5" as="sourcePoint" />
            <mxPoint x="670" y="230" as="targetPoint" />
          </mxGeometry>
        </mxCell>
        <mxCell id="RuLnJAGt3dWa1LINMC8S-12" value="" style="endArrow=none;html=1;entryX=0.5;entryY=1;entryDx=0;entryDy=0;exitX=0.5;exitY=0;exitDx=0;exitDy=0;" edge="1" parent="AELfop9hD6j-7uFaIOFz-1" source="RuLnJAGt3dWa1LINMC8S-5" target="RuLnJAGt3dWa1LINMC8S-3">
          <mxGeometry width="50" height="50" relative="1" as="geometry">
            <mxPoint x="120" y="260.12" as="sourcePoint" />
            <mxPoint x="230" y="261" as="targetPoint" />
          </mxGeometry>
        </mxCell>
        <mxCell id="RuLnJAGt3dWa1LINMC8S-13" value="" style="endArrow=none;html=1;entryX=0.5;entryY=1;entryDx=0;entryDy=0;exitX=0.5;exitY=0;exitDx=0;exitDy=0;" edge="1" parent="AELfop9hD6j-7uFaIOFz-1" source="RuLnJAGt3dWa1LINMC8S-6" target="RuLnJAGt3dWa1LINMC8S-3">
          <mxGeometry width="50" height="50" relative="1" as="geometry">
            <mxPoint x="130" y="270.12" as="sourcePoint" />
            <mxPoint x="240" y="271" as="targetPoint" />
          </mxGeometry>
        </mxCell>
        <mxCell id="RuLnJAGt3dWa1LINMC8S-14" value="" style="endArrow=none;html=1;entryX=0.5;entryY=1;entryDx=0;entryDy=0;exitX=0.5;exitY=0;exitDx=0;exitDy=0;" edge="1" parent="AELfop9hD6j-7uFaIOFz-1" source="RuLnJAGt3dWa1LINMC8S-7" target="RuLnJAGt3dWa1LINMC8S-3">
          <mxGeometry width="50" height="50" relative="1" as="geometry">
            <mxPoint x="670" y="370" as="sourcePoint" />
            <mxPoint x="250" y="281" as="targetPoint" />
          </mxGeometry>
        </mxCell>
        <mxCell id="RuLnJAGt3dWa1LINMC8S-15" value="" style="endArrow=classic;html=1;" edge="1" parent="AELfop9hD6j-7uFaIOFz-1">
          <mxGeometry width="50" height="50" relative="1" as="geometry">
            <mxPoint x="110" y="210" as="sourcePoint" />
            <mxPoint x="190" y="210" as="targetPoint" />
          </mxGeometry>
        </mxCell>
        <mxCell id="RuLnJAGt3dWa1LINMC8S-16" value="" style="endArrow=classic;html=1;" edge="1" parent="AELfop9hD6j-7uFaIOFz-1">
          <mxGeometry width="50" height="50" relative="1" as="geometry">
            <mxPoint x="330" y="210" as="sourcePoint" />
            <mxPoint x="410" y="210" as="targetPoint" />
          </mxGeometry>
        </mxCell>
        <mxCell id="RuLnJAGt3dWa1LINMC8S-17" value="" style="endArrow=classic;html=1;" edge="1" parent="AELfop9hD6j-7uFaIOFz-1">
          <mxGeometry width="50" height="50" relative="1" as="geometry">
            <mxPoint x="570" y="210" as="sourcePoint" />
            <mxPoint x="650" y="210" as="targetPoint" />
          </mxGeometry>
        </mxCell>
        <mxCell id="RuLnJAGt3dWa1LINMC8S-19" value="" style="endArrow=classic;html=1;" edge="1" parent="AELfop9hD6j-7uFaIOFz-1">
          <mxGeometry width="50" height="50" relative="1" as="geometry">
            <mxPoint x="400" y="290" as="sourcePoint" />
            <mxPoint x="290" y="370" as="targetPoint" />
          </mxGeometry>
        </mxCell>
        <mxCell id="RuLnJAGt3dWa1LINMC8S-20" value="" style="endArrow=classic;html=1;" edge="1" parent="AELfop9hD6j-7uFaIOFz-1">
          <mxGeometry width="50" height="50" relative="1" as="geometry">
            <mxPoint x="470" y="290" as="sourcePoint" />
            <mxPoint x="470" y="400" as="targetPoint" />
          </mxGeometry>
        </mxCell>
        <mxCell id="RuLnJAGt3dWa1LINMC8S-21" value="" style="endArrow=classic;html=1;" edge="1" parent="AELfop9hD6j-7uFaIOFz-1">
          <mxGeometry width="50" height="50" relative="1" as="geometry">
            <mxPoint x="560" y="280" as="sourcePoint" />
            <mxPoint x="690" y="360" as="targetPoint" />
          </mxGeometry>
        </mxCell>
        <mxCell id="RuLnJAGt3dWa1LINMC8S-23" value="Enter student info" style="text;html=1;strokeColor=none;fillColor=none;align=center;verticalAlign=middle;whiteSpace=wrap;rounded=0;" vertex="1" parent="AELfop9hD6j-7uFaIOFz-1">
          <mxGeometry x="100" y="180" width="100" height="20" as="geometry" />
        </mxCell>
        <mxCell id="RuLnJAGt3dWa1LINMC8S-24" value="Get course approved" style="text;html=1;strokeColor=none;fillColor=none;align=center;verticalAlign=middle;whiteSpace=wrap;rounded=0;" vertex="1" parent="AELfop9hD6j-7uFaIOFz-1">
          <mxGeometry x="560" y="180" width="100" height="20" as="geometry" />
        </mxCell>
        <mxCell id="RuLnJAGt3dWa1LINMC8S-29" value="" style="endArrow=classic;html=1;" edge="1" parent="AELfop9hD6j-7uFaIOFz-1">
          <mxGeometry width="50" height="50" relative="1" as="geometry">
            <mxPoint x="220" y="215" as="sourcePoint" />
            <mxPoint x="282" y="217" as="targetPoint" />
            <Array as="points">
              <mxPoint x="220" y="160" />
              <mxPoint x="282" y="160" />
            </Array>
          </mxGeometry>
        </mxCell>
        <mxCell id="RuLnJAGt3dWa1LINMC8S-30" value="update student info" style="text;html=1;strokeColor=none;fillColor=none;align=center;verticalAlign=middle;whiteSpace=wrap;rounded=0;" vertex="1" parent="AELfop9hD6j-7uFaIOFz-1">
          <mxGeometry x="200" y="130" width="100" height="20" as="geometry" />
        </mxCell>
        <mxCell id="RuLnJAGt3dWa1LINMC8S-32" value="" style="endArrow=classic;html=1;" edge="1" parent="AELfop9hD6j-7uFaIOFz-1">
          <mxGeometry width="50" height="50" relative="1" as="geometry">
            <mxPoint x="449" y="213" as="sourcePoint" />
            <mxPoint x="511" y="215" as="targetPoint" />
            <Array as="points">
              <mxPoint x="449" y="158" />
              <mxPoint x="511" y="158" />
            </Array>
          </mxGeometry>
        </mxCell>
        <mxCell id="RuLnJAGt3dWa1LINMC8S-33" value="update course info" style="text;html=1;strokeColor=none;fillColor=none;align=center;verticalAlign=middle;whiteSpace=wrap;rounded=0;" vertex="1" parent="AELfop9hD6j-7uFaIOFz-1">
          <mxGeometry x="430" y="130" width="100" height="20" as="geometry" />
        </mxCell>
        <mxCell id="RuLnJAGt3dWa1LINMC8S-34" value="choose course" style="text;html=1;strokeColor=none;fillColor=none;align=center;verticalAlign=middle;whiteSpace=wrap;rounded=0;" vertex="1" parent="AELfop9hD6j-7uFaIOFz-1">
          <mxGeometry x="320" y="180" width="100" height="20" as="geometry" />
        </mxCell>
        <mxCell id="RuLnJAGt3dWa1LINMC8S-35" value="" style="endArrow=none;html=1;entryX=1;entryY=0.5;entryDx=0;entryDy=0;exitX=0;exitY=0.5;exitDx=0;exitDy=0;" edge="1" parent="AELfop9hD6j-7uFaIOFz-1" source="RuLnJAGt3dWa1LINMC8S-7" target="RuLnJAGt3dWa1LINMC8S-6">
          <mxGeometry width="50" height="50" relative="1" as="geometry">
            <mxPoint x="750" y="420" as="sourcePoint" />
            <mxPoint x="490" y="255" as="targetPoint" />
          </mxGeometry>
        </mxCell>
        <mxCell id="RuLnJAGt3dWa1LINMC8S-36" value="" style="endArrow=classic;html=1;" edge="1" parent="AELfop9hD6j-7uFaIOFz-1">
          <mxGeometry width="50" height="50" relative="1" as="geometry">
            <mxPoint x="650" y="410" as="sourcePoint" />
            <mxPoint x="550" y="410" as="targetPoint" />
          </mxGeometry>
        </mxCell>
        <mxCell id="RuLnJAGt3dWa1LINMC8S-37" value="register course" style="text;html=1;strokeColor=none;fillColor=none;align=center;verticalAlign=middle;whiteSpace=wrap;rounded=0;" vertex="1" parent="AELfop9hD6j-7uFaIOFz-1">
          <mxGeometry x="620" y="300" width="100" height="20" as="geometry" />
        </mxCell>
        <mxCell id="RuLnJAGt3dWa1LINMC8S-40" value="get list of reg courses" style="text;html=1;strokeColor=none;fillColor=none;align=center;verticalAlign=middle;whiteSpace=wrap;rounded=0;" vertex="1" parent="AELfop9hD6j-7uFaIOFz-1">
          <mxGeometry x="550" y="380" width="100" height="20" as="geometry" />
        </mxCell>
        <mxCell id="RuLnJAGt3dWa1LINMC8S-41" value="Exam reg." style="text;html=1;strokeColor=none;fillColor=none;align=center;verticalAlign=middle;whiteSpace=wrap;rounded=0;" vertex="1" parent="AELfop9hD6j-7uFaIOFz-1">
          <mxGeometry x="390" y="330" width="100" height="20" as="geometry" />
        </mxCell>
        <mxCell id="RuLnJAGt3dWa1LINMC8S-42" value="get course list" style="text;html=1;strokeColor=none;fillColor=none;align=center;verticalAlign=middle;whiteSpace=wrap;rounded=0;" vertex="1" parent="AELfop9hD6j-7uFaIOFz-1">
          <mxGeometry x="240" y="310" width="100" height="20" as="geometry" />
        </mxCell>
      </root>
    </mxGraphModel>
  </diagram>
</mxfile>
